General                          : ChattChitto RG - Movies
==========
Complete name                    : Saw VI 2009 Unrated Director's Cut BDRip.mp4
Format                           : MPEG-4
Format profile                   : Base Media
Codec ID                         : isom
File size                        : 1.70 GiB
Duration                         : 1h 31mn
Overall bit rate                 : 2 662 Kbps
Encoded date                     : UTC 2010-01-29 04:08:20

Video
==========
ID                               : 1
Format                           : AVC
Format/Info                      : Advanced Video Codec
Format profile                   : High@L3.1
Format settings, CABAC           : Yes
Format settings, ReFrames        : 3 frames
Codec ID                         : avc1
Codec ID/Info                    : Advanced Video Coding
Duration                         : 1h 31mn
Bit rate mode                    : Variable
Bit rate                         : 2 300 Kbps
Maximum bit rate                 : 14.6 Mbps
Width                            : 1 280 pixels
Height                           : 688 pixels
Display aspect ratio             : 1.860
Frame rate mode                  : Constant
Frame rate                       : 23.976 fps
Resolution                       : 8 bits
Colorimetry                      : 4:2:0
Scan type                        : Progressive
Bits/(Pixel*Frame)               : 0.109
Stream size                      : 1.47 GiB (86%)
Writing library                  : x264 core 76 r1271 496d79d
Encoded date                     : UTC 2010-01-29 03:37:55

Audio
===========
ID                               : 2
Format                           : AAC
Format/Info                      : Advanced Audio Codec
Format version                   : Version 4
Format profile                   : LC
Format settings, SBR             : No
Codec ID                         : 40
Duration                         : 1h 31mn
Bit rate mode                    : Variable
Bit rate                         : 352.8 Kbps
Maximum bit rate                 : 458 Kbps
Channel(s)                       : 6 channels
Channel positions                : Front: L C R, Rear: L R, LFE
Sampling rate                    : 48.0 KHz
Stream size                      : 235 MiB (13%)
Encoded date                     : UTC 2010-01-29 04:09:03

Subtitles                        : English/Spanish [.srt files]



----------------------------------------------------
IMDB Link: http://www.imdb.com/title/tt1233227/
----------------------------------------------------


Screen Shots:
==============
http://bayimg.com/IakHfaACA
http://bayimg.com/iaKHeaaCa
http://bayimg.com/IaKHdaACA
http://bayimg.com/IakHCaaCA
http://bayimg.com/HakhpAACa



Plot:
======
Special Agent Strahm is dead, and Detective Hoffman has emerged as the unchallenged successor to Jigsaw's legacy. However, when the FBI draws closer to Hoffman, he is forced to set a game into motion, and Jigsaw's grand scheme is finally understood.


Source:
========
Saw VI 2009 Unrated Director's Cut Blue-Ray 1080p MPEG-4 AVC/DTS-HD Master Audio 7.1 [16.1Gb]


Notes:
=======
ChattChitto RG Encourages Burning this Film with ConvertXtoDVD.
Enhanced for your viewing pleasure ;)